<svg xmlns="http://www.w3.org/2000/svg" viewBox="0 0 64 64">
  <defs>
    <linearGradient id="g" x1="10" y1="8" x2="54" y2="58" gradientUnits="userSpaceOnUse">
      <stop stop-color="#b775ff"/>
      <stop offset=".52" stop-color="#745cf7"/>
      <stop offset="1" stop-color="#4f8cff"/>
    </linearGradient>
  </defs>
  <rect width="64" height="64" rx="18" fill="#0d0920"/>
  <rect x="7" y="7" width="50" height="50" rx="15" fill="url(#g)" opacity=".2"/>
  <path d="M22 13h20v9.5c0 7.8-4 13.7-10 16-6-2.3-10-8.2-10-16V13Z" fill="none" stroke="#f7f2ff" stroke-width="2.6" stroke-linejoin="round"/>
  <path d="M22 18h-7v4.5c0 5.4 3.2 9.4 8.7 10.5M42 18h7v4.5c0 5.4-3.2 9.4-8.7 10.5" fill="none" stroke="#f7f2ff" stroke-width="2.6" stroke-linecap="round" stroke-linejoin="round"/>
  <path d="M32 38.5V46M25 47h14M21 53h22" fill="none" stroke="#f7f2ff" stroke-width="2.7" stroke-linecap="round"/>
  <path d="m32 18 1.8 3.8 4.2.6-3 2.9.7 4.2-3.7-2-3.7 2 .7-4.2-3-2.9 4.2-.6L32 18Z" fill="#f7f2ff"/>
</svg>
